Coordinates
version=1
nRows=10
nColumns=63
inDegrees=yes

Units are S.I. units (second, meters, Newtons, ...)
If the header above contains a line with 'inDegrees', this indicates whether rotational values are in degrees (yes) or radians (no).

endheader
time	pelvis_tilt	pelvis_list	pelvis_rotation	pelvis_tx	pelvis_ty	pelvis_tz	hip_flexion_r	hip_adduction_r	hip_rotation_r	knee_angle_r	knee_angle_r_beta	ankle_angle_r	subtalar_angle_r	mtp_angle_r	hip_flexion_l	hip_adduction_l	hip_rotation_l	knee_angle_l	knee_angle_l_beta	ankle_angle_l	subtalar_angle_l	mtp_angle_l	L5_S1_Flex_Ext	L5_S1_Lat_Bending	L5_S1_axial_rotation	L4_L5_Flex_Ext	L4_L5_Lat_Bending	L4_L5_axial_rotation	L3_L4_Flex_Ext	L3_L4_Lat_Bending	L3_L4_axial_rotation	L2_L3_Flex_Ext	L2_L3_Lat_Bending	L2_L3_axial_rotation	L1_L2_Flex_Ext	L1_L2_Lat_Bending	L1_L2_axial_rotation	L1_T12_Flex_Ext	L1_T12_Lat_Bending	L1_T12_axial_rotation	Abs_r3	Abs_r2	Abs_r1	Abs_t1	Abs_t2	neck_flexion	neck_bending	neck_rotation	arm_flex_r	arm_add_r	arm_rot_r	elbow_flex_r	pro_sup_r	wrist_flex_r	wrist_dev_r	arm_flex_l	arm_add_l	arm_rot_l	elbow_flex_l	pro_sup_l	wrist_flex_l	wrist_dev_l
1.981132	2.428064	-1.366853	93.159642	0.220683	0.908394	0.638897	-0.412532	2.877273	-0.021941	2.402238	0.041927	21.807637	-1.024893	0.000000	1.261831	-2.833850	-0.368220	6.217093	0.108509	23.880169	-0.137532	0.000000	0.122738	0.236386	-0.203712	0.227936	0.314394	-0.216444	0.201645	0.574750	-0.216444	0.140277	0.574750	-0.178248	0.113974	0.482039	-0.165516	0.070132	0.366162	-0.152784	0.876702	2.674049	-1.132983	0.000000	0.000000	12.838059	2.844591	3.341144	13.390762	-8.432602	111.014861	7.451810	5.445125	3.251864	-7.213036	10.044762	-8.027726	132.310258	1.451184	26.083047	-12.921645	-5.001410
2.000000	2.415025	-1.312477	93.229870	0.220373	0.908654	0.638353	-0.545504	2.862236	0.480560	2.279019	0.039776	21.585670	-1.813269	0.000000	1.171272	-2.817562	-0.719810	6.108895	0.106620	23.992001	0.319024	0.000000	0.122674	0.238309	-0.252628	0.227818	0.316951	-0.268418	0.201541	0.579425	-0.268418	0.140204	0.579425	-0.221050	0.113915	0.485960	-0.205261	0.070096	0.369141	-0.189471	0.876247	2.695799	-1.405043	0.000000	0.000000	12.742417	2.844904	3.571770	13.353138	-8.448971	110.939467	7.585617	5.451291	3.309087	-7.127791	10.140418	-7.922193	134.093404	1.279125	28.598470	-12.702434	-3.747873
2.018868	2.379326	-1.254977	93.272390	0.220139	0.908908	0.637843	-0.676091	2.825554	0.956530	2.160590	0.037709	21.422750	-2.512933	0.000000	1.073798	-2.781721	-1.169408	5.981717	0.104401	24.151409	0.868280	0.000000	0.121807	0.237486	-0.293421	0.226208	0.315856	-0.311759	0.200117	0.577423	-0.311759	0.139214	0.577423	-0.256743	0.113110	0.484281	-0.238404	0.069601	0.367866	-0.220065	0.870057	2.686488	-1.631917	0.000000	0.000000	12.640928	2.848354	3.802940	13.296392	-8.447206	110.671504	7.706723	5.660695	3.316836	-7.071269	10.243072	-7.836578	135.597572	1.126008	31.190062	-12.585056	-2.624365
2.037736	2.326146	-1.193388	93.266437	0.220004	0.909143	0.637370	-0.802854	2.773266	1.480506	2.052590	0.035824	21.300698	-3.204016	0.000000	0.955070	-2.718377	-1.469652	5.817516	0.101535	24.271455	1.144784	0.000000	0.120041	0.234958	-0.322775	0.222928	0.312495	-0.342948	0.197215	0.571278	-0.342948	0.137195	0.571278	-0.282428	0.111470	0.479127	-0.262254	0.068591	0.363950	-0.242081	0.857441	2.657895	-1.795176	0.000000	0.000000	12.535523	2.844918	4.048517	13.225833	-8.403802	110.742457	7.711800	5.761321	3.335830	-7.048767	10.342488	-7.775244	136.938219	0.991273	33.264179	-12.506241	-1.715559
2.056604	2.256748	-1.127505	93.208224	0.219974	0.909352	0.636967	-0.923654	2.706709	2.061436	1.959101	0.034193	21.206233	-3.899651	0.000000	0.825803	-2.632580	-1.665489	5.643556	0.098499	24.370902	1.229272	0.000000	0.116483	0.230605	-0.336549	0.216320	0.306705	-0.357584	0.191370	0.560694	-0.357584	0.133128	0.560694	-0.294481	0.108166	0.470250	-0.273446	0.066558	0.357208	-0.252412	0.832025	2.608653	-1.871787	0.000000	0.000000	12.444835	2.839041	4.273150	13.139546	-8.310472	111.260576	7.559057	5.698347	3.371181	-7.058356	10.451022	-7.735063	138.059580	0.882855	34.889105	-12.439510	-0.992095
2.075472	2.172401	-1.060522	93.116942	0.220028	0.909531	0.636617	-1.032435	2.623900	2.528232	1.892600	0.033032	21.181392	-4.384392	0.000000	0.683520	-2.524240	-1.726400	5.450876	0.095136	24.423456	1.127517	0.000000	0.112458	0.224357	-0.337750	0.208846	0.298394	-0.358859	0.184757	0.545501	-0.358859	0.128528	0.545501	-0.295531	0.104428	0.457508	-0.274422	0.064258	0.347528	-0.253312	0.803276	2.537966	-1.878462	0.000000	0.000000	12.343610	2.831319	4.483996	13.041393	-8.191823	111.891223	7.332862	5.638894	3.383447	-7.103466	10.551409	-7.722186	138.841150	0.801404	36.031783	-12.371280	-0.508493
2.094340	2.079571	-0.995871	92.991061	0.220160	0.909676	0.636328	-1.128308	2.531907	2.933341	1.844684	0.032196	21.201156	-4.729421	0.000000	0.536698	-2.401208	-1.653455	5.254740	0.091713	24.422080	0.843378	0.000000	0.107995	0.216867	-0.324745	0.200558	0.288433	-0.345042	0.177425	0.527291	-0.345042	0.123427	0.527291	-0.284152	0.100284	0.442235	-0.263856	0.061708	0.335927	-0.243559	0.771398	2.453243	-1.806137	0.000000	0.000000	12.252544	2.819209	4.653234	12.931081	-8.052071	112.662487	7.030277	5.538933	3.380758	-7.193644	10.652051	-7.725020	139.416769	0.747848	36.784982	-12.269652	-0.181600
2.113208	1.981414	-0.937733	92.846625	0.220342	0.909783	0.636104	-1.207438	2.433713	3.259357	1.813237	0.031647	21.265553	-4.939722	0.000000	0.394525	-2.265648	-1.433271	5.063696	0.088378	24.356884	0.369312	0.000000	0.103578	0.208315	-0.301461	0.192355	0.277059	-0.320302	0.170169	0.506497	-0.320302	0.118380	0.506497	-0.263778	0.096183	0.424796	-0.244937	0.059185	0.322680	-0.226096	0.739849	2.356499	-1.676635	0.000000	0.000000	12.174242	2.803542	4.777134	12.812513	-7.894996	113.548625	6.659349	5.362437	3.408485	-7.307596	10.744002	-7.742368	139.706552	0.723796	37.265877	-12.182503	-0.041266
2.132075	1.879509	-0.890057	92.693617	0.220563	0.909852	0.635943	-1.268358	2.332274	3.536095	1.791113	0.031261	21.361322	-5.081456	0.000000	0.270021	-2.126003	-1.202681	4.897444	0.085477	24.271804	-0.111175	0.000000	0.099638	0.198931	-0.272003	0.185037	0.264579	-0.289004	0.163695	0.483682	-0.289004	0.113876	0.483682	-0.238003	0.092524	0.405661	-0.221003	0.056933	0.308145	-0.204002	0.711703	2.250351	-1.512801	0.000000	0.000000	12.108073	2.790765	4.875126	12.693479	-7.728319	114.438799	6.256582	5.131577	3.453969	-7.433580	10.817609	-7.768664	139.947323	0.712760	37.345286	-12.130854	-0.057872
2.150943	1.781384	-0.857633	92.568275	0.220761	0.909882	0.635856	-1.302176	2.230241	3.573848	1.788838	0.031221	21.529134	-4.944065	0.000000	0.178098	-1.990726	-0.966715	4.769459	0.083243	24.179272	-0.567000	0.000000	0.096754	0.189492	-0.245330	0.179682	0.252024	-0.260663	0.158957	0.460731	-0.260663	0.110580	0.460731	-0.214664	0.089846	0.386412	-0.199331	0.055285	0.293523	-0.183998	0.691104	2.143571	-1.364452	0.000000	0.000000	12.059581	2.782333	4.952827	12.582658	-7.557848	115.288814	5.839069	4.841257	3.532376	-7.554834	10.867553	-7.797358	139.976369	0.722861	37.353494	-12.167290	-0.202819
